<svg version="1.0" xmlns="http://www.w3.org/2000/svg" width="173.333" height="66.667" viewBox="0 0 214 173"><path d="M164.7 27c-5.6 2.8-8.6 3.8-10.3 3.4-2.8-.7-8 1.2-8.8 3.2-.3.8.6 2 2.3 2.9 2.1 1 2.8 2 2.4 3.3-.6 2.5 5 8.2 7.5 7.5 1.2-.3 2.2.4 3.2 2.1.7 1.4 1.7 2.6 2.1 2.6 1.6 0 3.9-5.2 3.9-9.1 0-2.5.8-5.2 2-6.9 2.9-4.1 5.9-13 4.3-13-.5 0-4.3 1.8-8.6 4zM85.5 47c-22 .3-40.6.9-41.2 1.3-3.1 2-13.5 19.6-15.5 26-2.4 8.2-2.1 18 .8 24.2 2.9 6.3 12.3 15 18.6 17.1 10 3.4 21.9 1.8 30.5-4 3.2-2.2 39.2-35.4 63.2-58.3l7.6-7.2-12 .1c-6.6.1-30 .5-52 .8zm51.9 13.7c-6.6 7-18.5 19.7-26.5 28.3-26.3 28-27.9 30-30.4 38.3-3.3 11.1-.8 22.6 6.6 31.1 13.7 15.5 33.3 14.7 56.4-2.4l5.5-4.1v-8.2c0-4.5.3-27.9.7-52 .3-24 .4-43.7.1-43.7-.3 0-5.9 5.7-12.4 12.7z" fill="#0455a4"/></svg>